<svg version="1.1" xmlns="http://www.w3.org/2000/svg" xmlns:xlink="http://www.w3.org/1999/xlink" width="1013" height="668"><defs/><g><g><rect fill="#C0C0C0" stroke="none" x="39" y="495" width="73.6" height="15" transform="matrix(1 0 0 1 -22 -478)" fill-opacity="0.2"/></g><g><rect fill="#C0C0C0" stroke="none" x="39" y="509" width="184" height="258" transform="matrix(1 0 0 1 -22 -478)" fill-opacity="0.2"/></g><g><rect fill="#ffffff" stroke="none" x="32" y="503" width="184" height="257" transform="matrix(1 0 0 1 -22 -478)"/></g><g><path fill="none" stroke="#000000" paint-order="fill stroke markers" d=" M 10 25 L 194 25 L 194 282 L 10 282 L 10 25 Z Z" stroke-miterlimit="10" stroke-dasharray=""/></g><g><rect fill="#ffffff" stroke="none" x="32" y="488" width="73.6" height="15" transform="matrix(1 0 0 1 -22 -478)"/></g><g><path fill="none" stroke="#000000" paint-order="fill stroke markers" d=" M 10 10 L 83.6 10 L 83.6 25 L 10 25 L 10 10 Z Z" stroke-miterlimit="10" stroke-dasharray=""/></g><g><rect fill="#ffffff" stroke="none" x="32" y="502" width="184" height="258" transform="matrix(1 0 0 1 -22 -478)"/></g><g><path fill="none" stroke="#000000" paint-order="fill stroke markers" d=" M 10 24 L 194 24 L 194 282 L 10 282 L 10 24 Z Z" stroke-miterlimit="10" stroke-dasharray=""/></g><g><g><path fill="none" stroke="none"/><text fill="#000000" stroke="none" font-family="Arial" font-size="13px" font-style="normal" font-weight="bold" text-decoration="undefined" x="124.5" y="516.5" text-anchor="middle" dominant-baseline="central" transform="matrix(1 0 0 1 -22 -478)">frontend</text></g></g><g><rect fill="#C0C0C0" stroke="none" x="287" y="495" width="220.8" height="15" transform="matrix(1 0 0 1 -22 -478)" fill-opacity="0.2"/></g><g><rect fill="#C0C0C0" stroke="none" x="287" y="509" width="552" height="634" transform="matrix(1 0 0 1 -22 -478)" fill-opacity="0.2"/></g><g><rect fill="#ffffff" stroke="none" x="280" y="503" width="552" height="633" transform="matrix(1 0 0 1 -22 -478)"/></g><g><path fill="none" stroke="#000000" paint-order="fill stroke markers" d=" M 258 25 L 810 25 L 810 658 L 258 658 L 258 25 Z Z" stroke-miterlimit="10" stroke-dasharray=""/></g><g><rect fill="#ffffff" stroke="none" x="280" y="488" width="220.8" height="15" transform="matrix(1 0 0 1 -22 -478)"/></g><g><path fill="none" stroke="#000000" paint-order="fill stroke markers" d=" M 258 10 L 478.8 10 L 478.8 25 L 258 25 L 258 10 Z Z" stroke-miterlimit="10" stroke-dasharray=""/></g><g><rect fill="#ffffff" stroke="none" x="280" y="502" width="552" height="634" transform="matrix(1 0 0 1 -22 -478)"/></g><g><path fill="none" stroke="#000000" paint-order="fill stroke markers" d=" M 258 24 L 810 24 L 810 658 L 258 658 L 258 24 Z Z" stroke-miterlimit="10" stroke-dasharray=""/></g><g><g><path fill="none" stroke="none"/><text fill="#000000" stroke="none" font-family="Arial" font-size="13px" font-style="normal" font-weight="bold" text-decoration="undefined" x="556.5" y="516.5" text-anchor="middle" dominant-baseline="central" transform="matrix(1 0 0 1 -22 -478)">backend</text></g></g><g><rect fill="#C0C0C0" stroke="none" x="481" y="963" width="123.20000000000005" height="15" transform="matrix(1 0 0 1 -22 -478)" fill-opacity="0.2"/></g><g><rect fill="#C0C0C0" stroke="none" x="481" y="977" width="308" height="126" transform="matrix(1 0 0 1 -22 -478)" fill-opacity="0.2"/></g><g><rect fill="#ffffff" stroke="none" x="474" y="971" width="308" height="125" transform="matrix(1 0 0 1 -22 -478)"/></g><g><path fill="none" stroke="#000000" paint-order="fill stroke markers" d=" M 452 493 L 760 493 L 760 618 L 452 618 L 452 493 Z Z" stroke-miterlimit="10" stroke-dasharray=""/></g><g><rect fill="#ffffff" stroke="none" x="474" y="956" width="123.20000000000005" height="15" transform="matrix(1 0 0 1 -22 -478)"/></g><g><path fill="none" stroke="#000000" paint-order="fill stroke markers" d=" M 452 478 L 575.2 478 L 575.2 493 L 452 493 L 452 478 Z Z" stroke-miterlimit="10" stroke-dasharray=""/></g><g><rect fill="#ffffff" stroke="none" x="474" y="970" width="308" height="126" transform="matrix(1 0 0 1 -22 -478)"/></g><g><path fill="none" stroke="#000000" paint-order="fill stroke markers" d=" M 452 492 L 760 492 L 760 618 L 452 618 L 452 492 Z Z" stroke-miterlimit="10" stroke-dasharray=""/></g><g><g><path fill="none" stroke="none"/><text fill="#000000" stroke="none" font-family="Arial" font-size="13px" font-style="normal" font-weight="bold" text-decoration="undefined" x="628.5" y="984.5" text-anchor="middle" dominant-baseline="central" transform="matrix(1 0 0 1 -22 -478)">ner_model</text></g></g><g><rect fill="#C0C0C0" stroke="none" x="55" y="547" width="152" height="72" transform="matrix(1 0 0 1 -22 -478)" fill-opacity="0.2"/></g><g><rect fill="#ffffff" stroke="none" x="48" y="540" width="152" height="72" transform="matrix(1 0 0 1 -22 -478)"/></g><g><path fill="none" stroke="#000000" paint-order="fill stroke markers" d=" M 26 62 L 178 62 L 178 134 L 26 134 L 26 62 Z Z" stroke-miterlimit="10" stroke-dasharray=""/></g><g><path fill="none" stroke="#000000" paint-order="fill stroke markers" d=" M 26 87 L 178 87" stroke-miterlimit="10" stroke-dasharray=""/></g><g><g><path fill="none" stroke="none"/><text fill="#000000" stroke="none" font-family="Arial" font-size="13px" font-style="normal" font-weight="bold" text-decoration="undefined" x="124.5" y="553.5" text-anchor="middle" dominant-baseline="central" transform="matrix(1 0 0 1 -22 -478)">APIClient</text></g></g><g><rect fill="#C0C0C0" stroke="none" x="911" y="551" width="120" height="56" transform="matrix(1 0 0 1 -22 -478)" fill-opacity="0.2"/></g><g><rect fill="#ffffff" stroke="none" x="904" y="544" width="120" height="56" transform="matrix(1 0 0 1 -22 -478)"/></g><g><path fill="none" stroke="#000000" paint-order="fill stroke markers" d=" M 882 66 L 1002 66 L 1002 122 L 882 122 L 882 66 Z Z" stroke-miterlimit="10" stroke-dasharray=""/></g><g><g><path fill="none" stroke="none"/><text fill="#000000" stroke="none" font-family="Arial" font-size="13px" font-style="normal" font-weight="normal" text-decoration="undefined" x="964.5" y="555.5" text-anchor="middle" dominant-baseline="central" transform="matrix(1 0 0 1 -22 -478)">«database»</text></g></g><g><g><path fill="none" stroke="none"/><text fill="#000000" stroke="none" font-family="Arial" font-size="13px" font-style="normal" font-weight="bold" text-decoration="undefined" x="964.5" y="570.5" text-anchor="middle" dominant-baseline="central" transform="matrix(1 0 0 1 -22 -478)">Neo4J</text></g></g><g><rect fill="#C0C0C0" stroke="none" x="621" y="545" width="152" height="72" transform="matrix(1 0 0 1 -22 -478)" fill-opacity="0.2"/></g><g><rect fill="#ffffff" stroke="none" x="614" y="538" width="152" height="72" transform="matrix(1 0 0 1 -22 -478)"/></g><g><path fill="none" stroke="#000000" paint-order="fill stroke markers" d=" M 592 60 L 744 60 L 744 132 L 592 132 L 592 60 Z Z" stroke-miterlimit="10" stroke-dasharray=""/></g><g><path fill="none" stroke="#000000" paint-order="fill stroke markers" d=" M 592 98 L 744 98" stroke-miterlimit="10" stroke-dasharray=""/></g><g><g><path fill="none" stroke="none"/><text fill="#000000" stroke="none" font-family="Arial" font-size="13px" font-style="normal" font-weight="normal" text-decoration="undefined" x="690.5" y="549.5" text-anchor="middle" dominant-baseline="central" transform="matrix(1 0 0 1 -22 -478)">«service»</text></g></g><g><g><path fill="none" stroke="none"/><text fill="#000000" stroke="none" font-family="Arial" font-size="13px" font-style="normal" font-weight="bold" text-decoration="undefined" x="690.5" y="564.5" text-anchor="middle" dominant-baseline="central" transform="matrix(1 0 0 1 -22 -478)">Neo4jService</text></g></g><g><rect fill="#C0C0C0" stroke="none" x="351" y="545" width="151" height="72" transform="matrix(1 0 0 1 -22 -478)" fill-opacity="0.2"/></g><g><rect fill="#ffffff" stroke="none" x="344" y="538" width="151" height="72" transform="matrix(1 0 0 1 -22 -478)"/></g><g><path fill="none" stroke="#000000" paint-order="fill stroke markers" d=" M 322 60 L 473 60 L 473 132 L 322 132 L 322 60 Z Z" stroke-miterlimit="10" stroke-dasharray=""/></g><g><path fill="none" stroke="#000000" paint-order="fill stroke markers" d=" M 322 98 L 473 98" stroke-miterlimit="10" stroke-dasharray=""/></g><g><g><path fill="none" stroke="none"/><text fill="#000000" stroke="none" font-family="Arial" font-size="13px" font-style="normal" font-weight="normal" text-decoration="undefined" x="420" y="549.5" text-anchor="middle" dominant-baseline="central" transform="matrix(1 0 0 1 -22 -478)">«controller»</text></g></g><g><g><path fill="none" stroke="none"/><text fill="#000000" stroke="none" font-family="Arial" font-size="13px" font-style="normal" font-weight="bold" text-decoration="undefined" x="420" y="564.5" text-anchor="middle" dominant-baseline="central" transform="matrix(1 0 0 1 -22 -478)">API</text></g></g><g><rect fill="#C0C0C0" stroke="none" x="623" y="846" width="151.9970703125" height="67" transform="matrix(1 0 0 1 -22 -478)" fill-opacity="0.2"/></g><g><rect fill="#ffffff" stroke="none" x="616" y="839" width="151.9970703125" height="67" transform="matrix(1 0 0 1 -22 -478)"/></g><g><path fill="none" stroke="#000000" paint-order="fill stroke markers" d=" M 594 361 L 745.9970703125 361 L 745.9970703125 428 L 594 428 L 594 361 Z Z" stroke-miterlimit="10" stroke-dasharray=""/></g><g><path fill="none" stroke="#000000" paint-order="fill stroke markers" d=" M 594 399 L 745.9970703125 399" stroke-miterlimit="10" stroke-dasharray=""/></g><g><g><path fill="none" stroke="none"/><text fill="#000000" stroke="none" font-family="Arial" font-size="13px" font-style="normal" font-weight="normal" text-decoration="undefined" x="692.49853515625" y="850.5" text-anchor="middle" dominant-baseline="central" transform="matrix(1 0 0 1 -22 -478)">«background-task»</text></g></g><g><g><path fill="none" stroke="none"/><text fill="#000000" stroke="none" font-family="Arial" font-size="13px" font-style="normal" font-weight="bold" text-decoration="undefined" x="692.49853515625" y="865.5" text-anchor="middle" dominant-baseline="central" transform="matrix(1 0 0 1 -22 -478)">Trainer</text></g></g><g><rect fill="#C0C0C0" stroke="none" x="350" y="845" width="152" height="69" transform="matrix(1 0 0 1 -22 -478)" fill-opacity="0.2"/></g><g><rect fill="#ffffff" stroke="none" x="343" y="838" width="152" height="69" transform="matrix(1 0 0 1 -22 -478)"/></g><g><path fill="none" stroke="#000000" paint-order="fill stroke markers" d=" M 321 360 L 473 360 L 473 429 L 321 429 L 321 360 Z Z" stroke-miterlimit="10" stroke-dasharray=""/></g><g><path fill="none" stroke="#000000" paint-order="fill stroke markers" d=" M 321 398 L 473 398" stroke-miterlimit="10" stroke-dasharray=""/></g><g><g><path fill="none" stroke="none"/><text fill="#000000" stroke="none" font-family="Arial" font-size="13px" font-style="normal" font-weight="normal" text-decoration="undefined" x="419.5" y="849.5" text-anchor="middle" dominant-baseline="central" transform="matrix(1 0 0 1 -22 -478)">«component»</text></g></g><g><g><path fill="none" stroke="none"/><text fill="#000000" stroke="none" font-family="Arial" font-size="13px" font-style="normal" font-weight="bold" text-decoration="undefined" x="419.5" y="864.5" text-anchor="middle" dominant-baseline="central" transform="matrix(1 0 0 1 -22 -478)">NERManager</text></g></g><g><rect fill="#C0C0C0" stroke="none" x="350" y="703" width="152" height="72" transform="matrix(1 0 0 1 -22 -478)" fill-opacity="0.2"/></g><g><rect fill="#ffffff" stroke="none" x="343" y="696" width="152" height="72" transform="matrix(1 0 0 1 -22 -478)"/></g><g><path fill="none" stroke="#000000" paint-order="fill stroke markers" d=" M 321 218 L 473 218 L 473 290 L 321 290 L 321 218 Z Z" stroke-miterlimit="10" stroke-dasharray=""/></g><g><path fill="none" stroke="#000000" paint-order="fill stroke markers" d=" M 321 256 L 473 256" stroke-miterlimit="10" stroke-dasharray=""/></g><g><g><path fill="none" stroke="none"/><text fill="#000000" stroke="none" font-family="Arial" font-size="13px" font-style="normal" font-weight="normal" text-decoration="undefined" x="419.5" y="707.5" text-anchor="middle" dominant-baseline="central" transform="matrix(1 0 0 1 -22 -478)">«service»</text></g></g><g><g><path fill="none" stroke="none"/><text fill="#000000" stroke="none" font-family="Arial" font-size="13px" font-style="normal" font-weight="bold" text-decoration="undefined" x="419.5" y="722.5" text-anchor="middle" dominant-baseline="central" transform="matrix(1 0 0 1 -22 -478)">NERService</text></g></g><g><rect fill="#C0C0C0" stroke="none" x="503" y="1012" width="128" height="64" transform="matrix(1 0 0 1 -22 -478)" fill-opacity="0.2"/></g><g><rect fill="#ffffff" stroke="none" x="496" y="1005" width="128" height="64" transform="matrix(1 0 0 1 -22 -478)"/></g><g><path fill="none" stroke="#000000" paint-order="fill stroke markers" d=" M 474 527 L 602 527 L 602 591 L 474 591 L 474 527 Z Z" stroke-miterlimit="10" stroke-dasharray=""/></g><g><path fill="none" stroke="#000000" paint-order="fill stroke markers" d=" M 474 565 L 602 565" stroke-miterlimit="10" stroke-dasharray=""/></g><g><g><path fill="none" stroke="none"/><text fill="#000000" stroke="none" font-family="Arial" font-size="13px" font-style="normal" font-weight="normal" text-decoration="undefined" x="560.5" y="1016.5" text-anchor="middle" dominant-baseline="central" transform="matrix(1 0 0 1 -22 -478)">«model»</text></g></g><g><g><path fill="none" stroke="none"/><text fill="#000000" stroke="none" font-family="Arial" font-size="13px" font-style="normal" font-weight="bold" text-decoration="undefined" x="560.5" y="1031.5" text-anchor="middle" dominant-baseline="central" transform="matrix(1 0 0 1 -22 -478)">GLiNERModel</text></g></g><g><rect fill="#C0C0C0" stroke="none" x="647" y="1012" width="128" height="64" transform="matrix(1 0 0 1 -22 -478)" fill-opacity="0.2"/></g><g><rect fill="#ffffff" stroke="none" x="640" y="1005" width="128" height="64" transform="matrix(1 0 0 1 -22 -478)"/></g><g><path fill="none" stroke="#000000" paint-order="fill stroke markers" d=" M 618 527 L 746 527 L 746 591 L 618 591 L 618 527 Z Z" stroke-miterlimit="10" stroke-dasharray=""/></g><g><path fill="none" stroke="#000000" paint-order="fill stroke markers" d=" M 618 565 L 746 565" stroke-miterlimit="10" stroke-dasharray=""/></g><g><g><path fill="none" stroke="none"/><text fill="#000000" stroke="none" font-family="Arial" font-size="13px" font-style="normal" font-weight="normal" text-decoration="undefined" x="704.5" y="1016.5" text-anchor="middle" dominant-baseline="central" transform="matrix(1 0 0 1 -22 -478)">«model»</text></g></g><g><g><path fill="none" stroke="none"/><text fill="#000000" stroke="none" font-family="Arial" font-size="13px" font-style="normal" font-weight="bold" text-decoration="undefined" x="704.5" y="1031.5" text-anchor="middle" dominant-baseline="central" transform="matrix(1 0 0 1 -22 -478)">XLMRobertaModel</text></g></g><g><rect fill="#FFFFFFD6" stroke="none" x="288" y="784" width="60" height="25" transform="matrix(1 0 0 1 -22 -478)"/></g><g><path fill="none" stroke="#FFFFFF" paint-order="fill stroke markers" d=" M 266 306 L 326 306 L 326 331 L 266 331 L 266 306 Z Z" stroke-miterlimit="10" stroke-dasharray=""/></g><g><g><path fill="none" stroke="none"/><text fill="#000000" stroke="none" font-family="Arial" font-size="13px" font-style="normal" font-weight="normal" text-decoration="undefined" x="293" y="789" text-anchor="start" dominant-baseline="text-before-edge" transform="matrix(1 0 0 1 -22 -478)">gestão</text></g></g><g><rect fill="#FFFFFFD6" stroke="none" x="512" y="848" width="96" height="25" transform="matrix(1 0 0 1 -22 -478)"/></g><g><path fill="none" stroke="#FFFFFF" paint-order="fill stroke markers" d=" M 490 370 L 586 370 L 586 395 L 490 395 L 490 370 Z Z" stroke-miterlimit="10" stroke-dasharray=""/></g><g><g><path fill="none" stroke="none"/><text fill="#000000" stroke="none" font-family="Arial" font-size="13px" font-style="normal" font-weight="normal" text-decoration="undefined" x="517" y="853" text-anchor="start" dominant-baseline="text-before-edge" transform="matrix(1 0 0 1 -22 -478)">trocar modelo</text></g></g><g><rect fill="#FFFFFFD6" stroke="none" x="624" y="736" width="168" height="25" transform="matrix(1 0 0 1 -22 -478)"/></g><g><path fill="none" stroke="#FFFFFF" paint-order="fill stroke markers" d=" M 602 258 L 770 258 L 770 283 L 602 283 L 602 258 Z Z" stroke-miterlimit="10" stroke-dasharray=""/></g><g><g><path fill="none" stroke="none"/><text fill="#000000" stroke="none" font-family="Arial" font-size="13px" font-style="normal" font-weight="normal" text-decoration="undefined" x="629" y="741" text-anchor="start" dominant-baseline="text-before-edge" transform="matrix(1 0 0 1 -22 -478)">exporta dados de treino</text></g></g><g><rect fill="#FFFFFFD6" stroke="none" x="792" y="576" width="77.919921875" height="25" transform="matrix(1 0 0 1 -22 -478)"/></g><g><path fill="none" stroke="#FFFFFF" paint-order="fill stroke markers" d=" M 770 98 L 847.919921875 98 L 847.919921875 123 L 770 123 L 770 98 Z Z" stroke-miterlimit="10" stroke-dasharray=""/></g><g><g><path fill="none" stroke="none"/><text fill="#000000" stroke="none" font-family="Arial" font-size="13px" font-style="normal" font-weight="normal" text-decoration="undefined" x="797" y="581" text-anchor="start" dominant-baseline="text-before-edge" transform="matrix(1 0 0 1 -22 -478)">Bolt/Cypher</text></g></g><g><rect fill="#FFFFFFD6" stroke="none" x="224" y="552" width="82.2236328125" height="25" transform="matrix(1 0 0 1 -22 -478)"/></g><g><path fill="none" stroke="#FFFFFF" paint-order="fill stroke markers" d=" M 202 74 L 284.2236328125 74 L 284.2236328125 99 L 202 99 L 202 74 Z Z" stroke-miterlimit="10" stroke-dasharray=""/></g><g><g><path fill="none" stroke="none"/><text fill="#000000" stroke="none" font-family="Arial" font-size="13px" font-style="normal" font-weight="normal" text-decoration="undefined" x="229" y="557" text-anchor="start" dominant-baseline="text-before-edge" transform="matrix(1 0 0 1 -22 -478)">HTTP/JSON</text></g></g><g><rect fill="#FFFFFFD6" stroke="none" x="424" y="792" width="64" height="25" transform="matrix(1 0 0 1 -22 -478)"/></g><g><path fill="none" stroke="#FFFFFF" paint-order="fill stroke markers" d=" M 402 314 L 466 314 L 466 339 L 402 339 L 402 314 Z Z" stroke-miterlimit="10" stroke-dasharray=""/></g><g><g><path fill="none" stroke="none"/><text fill="#000000" stroke="none" font-family="Arial" font-size="13px" font-style="normal" font-weight="normal" text-decoration="undefined" x="429" y="797" text-anchor="start" dominant-baseline="text-before-edge" transform="matrix(1 0 0 1 -22 -478)">predict</text></g></g><g><rect fill="#C0C0C0" stroke="none" x="55" y="675" width="152" height="72" transform="matrix(1 0 0 1 -22 -478)" fill-opacity="0.2"/></g><g><rect fill="#ffffff" stroke="none" x="48" y="668" width="152" height="72" transform="matrix(1 0 0 1 -22 -478)"/></g><g><path fill="none" stroke="#000000" paint-order="fill stroke markers" d=" M 26 190 L 178 190 L 178 262 L 26 262 L 26 190 Z Z" stroke-miterlimit="10" stroke-dasharray=""/></g><g><path fill="none" stroke="#000000" paint-order="fill stroke markers" d=" M 26 215 L 178 215" stroke-miterlimit="10" stroke-dasharray=""/></g><g><g><path fill="none" stroke="none"/><text fill="#000000" stroke="none" font-family="Arial" font-size="13px" font-style="normal" font-weight="bold" text-decoration="undefined" x="124.5" y="681.5" text-anchor="middle" dominant-baseline="central" transform="matrix(1 0 0 1 -22 -478)">Pages</text></g></g><g><path fill="none" stroke="#000000" paint-order="fill stroke markers" d=" M 431 133 L 638 360" stroke-miterlimit="10" stroke-dasharray=""/></g><g><path fill="none" stroke="#000000" paint-order="fill stroke markers" d=" M 628.041880249839 355.32711534045063 L 638 360 L 634.2627744272634 349.65431756632347" stroke-miterlimit="10" stroke-dasharray=""/></g><g><path fill="#FFFFFF" stroke="none" paint-order="stroke fill markers" d=" M 440.9581197501611 137.67288465954937 L 431 133 L 434.73722557273663 143.34568243367653 L 445.82373495781536 149.25597988127583"/></g><g><path fill="none" stroke="#000000" paint-order="fill stroke markers" d=" M 440.9581197501611 137.67288465954937 L 431 133 L 434.73722557273663 143.34568243367653 L 445.82373495781536 149.25597988127583 L 440.9581197501611 137.67288465954937" stroke-miterlimit="10" stroke-dasharray=""/></g><g><path fill="none" stroke="#000000" paint-order="fill stroke markers" d=" M 102 189 L 102 135" stroke-miterlimit="10" stroke-dasharray=""/></g><g><path fill="none" stroke="#000000" paint-order="fill stroke markers" d=" M 106.209517756016 145.1626748576241 L 102 135 L 97.79048224398402 145.1626748576241" stroke-miterlimit="10" stroke-dasharray=""/></g><g><path fill="none" stroke="#000000" paint-order="fill stroke markers" d=" M 179 97 L 321 97" stroke-miterlimit="10" stroke-dasharray=""/></g><g><path fill="none" stroke="#000000" paint-order="fill stroke markers" d=" M 310.83732514237585 101.209517756016 L 321 97 L 310.83732514237585 92.790482243984" stroke-miterlimit="10" stroke-dasharray=""/></g><g><path fill="none" stroke="#000000" paint-order="fill stroke markers" d=" M 474 96 L 591 96" stroke-miterlimit="10" stroke-dasharray=""/></g><g><path fill="none" stroke="#000000" paint-order="fill stroke markers" d=" M 580.8373251423759 100.209517756016 L 591 96 L 580.8373251423758 91.790482243984" stroke-miterlimit="10" stroke-dasharray=""/></g><g><path fill="#FFFFFF" stroke="none" paint-order="stroke fill markers" d=" M 484.16267485762415 91.790482243984 L 474 96 L 484.16267485762415 100.209517756016 L 496 96"/></g><g><path fill="none" stroke="#000000" paint-order="fill stroke markers" d=" M 484.16267485762415 91.790482243984 L 474 96 L 484.16267485762415 100.209517756016 L 496 96 L 484.16267485762415 91.790482243984" stroke-miterlimit="10" stroke-dasharray=""/></g><g><path fill="none" stroke="#000000" paint-order="fill stroke markers" d=" M 745 95 L 881 94" stroke-miterlimit="10" stroke-dasharray=""/></g><g><path fill="none" stroke="#000000" paint-order="fill stroke markers" d=" M 870.8685513572693 98.28412749573488 L 881 94 L 870.80664835778 89.86531956518388" stroke-miterlimit="10" stroke-dasharray=""/></g><g><path fill="none" stroke="#000000" paint-order="fill stroke markers" d=" M 669 360 L 668 133" stroke-miterlimit="10" stroke-dasharray=""/></g><g><path fill="none" stroke="#000000" paint-order="fill stroke markers" d=" M 672.2542459688673 143.14403229669426 L 668 133 L 663.8352921478538 143.18112019898945" stroke-miterlimit="10" stroke-dasharray=""/></g><g><path fill="#FFFFFF" stroke="none" paint-order="stroke fill markers" d=" M 664.7457540311327 349.85596770330574 L 669 360 L 673.1647078521462 349.81887980101055 L 668.9030846408323 338.00021346891845"/></g><g><path fill="none" stroke="#000000" paint-order="fill stroke markers" d=" M 664.7457540311327 349.85596770330574 L 669 360 L 673.1647078521462 349.81887980101055 L 668.9030846408323 338.00021346891845 L 664.7457540311327 349.85596770330574" stroke-miterlimit="10" stroke-dasharray=""/></g><g><path fill="none" stroke="#000000" paint-order="fill stroke markers" d=" M 397 133 L 397 217" stroke-miterlimit="10" stroke-dasharray=""/></g><g><path fill="none" stroke="#000000" paint-order="fill stroke markers" d=" M 392.790482243984 206.8373251423759 L 397 217 L 401.209517756016 206.8373251423759" stroke-miterlimit="10" stroke-dasharray=""/></g><g><path fill="#FFFFFF" stroke="none" paint-order="stroke fill markers" d=" M 401.209517756016 143.1626748576241 L 397 133 L 392.790482243984 143.1626748576241 L 397 155"/></g><g><path fill="none" stroke="#000000" paint-order="fill stroke markers" d=" M 401.209517756016 143.1626748576241 L 397 133 L 392.790482243984 143.1626748576241 L 397 155 L 401.209517756016 143.1626748576241" stroke-miterlimit="10" stroke-dasharray=""/></g><g><path fill="none" stroke="#000000" paint-order="fill stroke markers" d=" M 397 133 L 397 186 L 290 186 L 290 394 L 320 394" stroke-miterlimit="10" stroke-dasharray=""/></g><g><path fill="none" stroke="#000000" paint-order="fill stroke markers" d=" M 309.83732514237585 398.209517756016 L 320 394 L 309.83732514237585 389.790482243984" stroke-miterlimit="10" stroke-dasharray=""/></g><g><path fill="#FFFFFF" stroke="none" paint-order="stroke fill markers" d=" M 401.209517756016 143.1626748576241 L 397 133 L 392.790482243984 143.1626748576241 L 397 155"/></g><g><path fill="none" stroke="#000000" paint-order="fill stroke markers" d=" M 401.209517756016 143.1626748576241 L 397 133 L 392.790482243984 143.1626748576241 L 397 155 L 401.209517756016 143.1626748576241" stroke-miterlimit="10" stroke-dasharray=""/></g><g><path fill="none" stroke="#000000" paint-order="fill stroke markers" d=" M 593 394 L 474 394" stroke-miterlimit="10" stroke-dasharray=""/></g><g><path fill="none" stroke="#000000" paint-order="fill stroke markers" d=" M 484.16267485762415 389.790482243984 L 474 394 L 484.16267485762415 398.209517756016" stroke-miterlimit="10" stroke-dasharray=""/></g><g><path fill="#FFFFFF" stroke="none" paint-order="stroke fill markers" d=" M 582.8373251423759 398.209517756016 L 593 394 L 582.8373251423758 389.790482243984 L 571 394"/></g><g><path fill="none" stroke="#000000" paint-order="fill stroke markers" d=" M 582.8373251423759 398.209517756016 L 593 394 L 582.8373251423758 389.790482243984 L 571 394 L 582.8373251423759 398.209517756016" stroke-miterlimit="10" stroke-dasharray=""/></g><g><path fill="none" stroke="#000000" paint-order="fill stroke markers" d=" M 397 291 L 397 359" stroke-miterlimit="10" stroke-dasharray=""/></g><g><path fill="none" stroke="#000000" paint-order="fill stroke markers" d=" M 392.790482243984 348.8373251423759 L 397 359 L 401.209517756016 348.8373251423759" stroke-miterlimit="10" stroke-dasharray=""/></g><g><path fill="#FFFFFF" stroke="none" paint-order="stroke fill markers" d=" M 401.209517756016 301.1626748576241 L 397 291 L 392.790482243984 301.1626748576241 L 397 313"/></g><g><path fill="none" stroke="#000000" paint-order="fill stroke markers" d=" M 401.209517756016 301.1626748576241 L 397 291 L 392.790482243984 301.1626748576241 L 397 313 L 401.209517756016 301.1626748576241" stroke-miterlimit="10" stroke-dasharray=""/></g><g><path fill="none" stroke="#000000" paint-order="fill stroke markers" d=" M 397 430 L 394 634 L 538 634 L 538 592" stroke-miterlimit="10" stroke-dasharray=""/></g><g><path fill="none" stroke="#000000" paint-order="fill stroke markers" d=" M 542.209517756016 602.1626748576241 L 538 592 L 533.790482243984 602.1626748576241" stroke-miterlimit="10" stroke-dasharray=""/></g><g><path fill="none" stroke="#000000" paint-order="fill stroke markers" d=" M 397 430 L 394 634 L 682 634 L 682 592" stroke-miterlimit="10" stroke-dasharray=""/></g><g><path fill="none" stroke="#000000" paint-order="fill stroke markers" d=" M 686.209517756016 602.1626748576241 L 682 592 L 677.790482243984 602.1626748576241" stroke-miterlimit="10" stroke-dasharray=""/></g><g><path fill="#000000" stroke="none" paint-order="stroke fill markers" d=" M 401.0596277053154 440.2234741108018 L 397 430 L 392.6415024084882 440.0996781505544 L 396.6765055662787 451.9976214930467"/></g><g><path fill="none" stroke="#000000" paint-order="fill stroke markers" d=" M 401.0596277053154 440.2234741108018 L 397 430 L 392.6415024084882 440.0996781505544 L 396.6765055662787 451.9976214930467 L 401.0596277053154 440.2234741108018" stroke-miterlimit="10" stroke-dasharray=""/></g></g></svg>